<svg width="20" height="20" viewBox="0 0 20 20" fill="none" xmlns="http://www.w3.org/2000/svg">
<path d="M9.16668 5.83333H10.8333V8.33333H9.16668V5.83333ZM11.6667 3.33333C11.6667 4.25417 10.9208 5 10 5C9.07918 5 8.33334 4.25417 8.33334 3.33333C8.33334 2.4125 10 0 10 0C10 0 11.6667 2.4125 11.6667 3.33333ZM14.1667 5.83333H15.8333V8.33333H14.1667V5.83333ZM16.6667 3.33333C16.6667 4.25417 15.9208 5 15 5C14.0792 5 13.3333 4.25417 13.3333 3.33333C13.3333 2.4125 15 0 15 0C15 0 16.6667 2.4125 16.6667 3.33333ZM4.16668 5.83333H5.83334V8.33333H4.16668V5.83333ZM6.66668 3.33333C6.66668 4.25417 5.92084 5 5.00001 5C4.07918 5 3.33334 4.25417 3.33334 3.33333C3.33334 2.4125 5.00001 0 5.00001 0C5.00001 0 6.66668 2.4125 6.66668 3.33333Z" fill="#141416"/>
<path d="M2.9125 11.9308C3.54583 12.6533 4.78833 12.6542 5.42167 11.9308L7.08417 10.0308L8.74667 11.9308C9.38 12.6533 10.6225 12.6542 11.2558 11.9308L12.9183 10.0308L14.5808 11.9308C15.2142 12.6533 16.4567 12.6542 17.09 11.9308L17.5 11.46V10C17.5 8.61917 16.3808 7.5 15 7.5H5C3.61917 7.5 2.5 8.61917 2.5 10V11.46L2.9125 11.9308Z" fill="#141416"/>
<path d="M15.8333 14.1666C14.8725 14.1666 13.9583 13.7516 13.325 13.0283L12.9167 12.5616L12.5083 13.0283C11.875 13.7516 10.9608 14.1666 10 14.1666C9.03917 14.1666 8.125 13.7516 7.49167 13.0283L7.08333 12.5616L6.675 13.0283C6.04167 13.7516 5.1275 14.1666 4.16667 14.1666C3.57167 14.1666 3.00333 13.9916 2.5 13.6983V17.5C2.5 17.96 2.87333 18.3333 3.33333 18.3333H16.6667C17.1267 18.3333 17.5 17.96 17.5 17.5V13.6983C16.9967 13.9908 16.4283 14.1666 15.8333 14.1666Z" fill="#141416"/>
</svg>
