<?xml version="1.0" encoding="UTF-8"?>
<svg width="700pt" height="700pt" version="1.1" viewBox="0 0 700 700" xmlns="http://www.w3.org/2000/svg">
 <path d="m458.3 245.73c-17.078 0-31.305 12.488-33.824 28.895l-83.328 0.003906v-110.15h47.375c2.7422 16.406 16.742 28.895 33.824 28.895 19.039 0 34.441-15.398 34.441-34.215 0-18.93-15.398-34.328-34.441-34.328-17.078 0-31.078 12.488-33.824 28.895h-52.75c-3.0781 0-5.4883 2.4062-5.4883 5.4883v115.53h-54.77c-2.6328-16.574-16.742-29.008-33.824-29.008-18.93 0-34.215 15.398-34.215 34.215 0 19.039 15.289 34.215 34.215 34.215 17.078 0 31.191-12.488 33.824-28.785h54.77v115.53c0 3.0781 2.4062 5.4883 5.4883 5.4883h52.695c2.7422 16.297 16.742 28.895 33.824 28.895 19.039 0 34.441-15.398 34.441-34.328-0.003906-18.922-15.402-34.266-34.441-34.266-17.078 0-31.078 12.602-33.824 28.895l-47.32 0.003907v-110.15h83.328c2.5195 16.293 16.742 28.727 33.824 28.727 18.816 0 34.215-15.176 34.215-34.215 0-18.816-15.398-34.219-34.215-34.219z"/>
</svg>
