<svg xmlns="http://www.w3.org/2000/svg" width="20" height="19" viewBox="0 0 20 19">
    <path fill="#8895AE" d="M19.09 6.686h-4.354L10.755.402C10.582.134 10.29 0 10 0c-.29 0-.582.134-.755.412L5.264 6.686H.909c-.5 0-.909.432-.909.958 0 .087.01.173.036.26l2.31 8.88c.209.804.909 1.398 1.745 1.398h11.818c.836 0 1.536-.594 1.755-1.399l2.309-8.88.027-.259c0-.526-.41-.958-.91-.958zM10 2.663l2.545 4.023h-5.09L10 2.663zm5.91 13.603l-11.81.01-2-7.674h15.81l-2 7.664zM10 10.518c-1 0-1.818.862-1.818 1.916 0 1.054.818 1.916 1.818 1.916s1.818-.862 1.818-1.916c0-1.054-.818-1.916-1.818-1.916z"/>
</svg>
